<svg width="3840" height="2160" viewBox="0 0 3840 2160" fill="none" xmlns="http://www.w3.org/2000/svg">
<path d="M0 0H3840V2160H0V0Z" fill="#C6EFC8"/>
<g opacity="0.5">
<mask id="mask0_1_678" style="mask-type:alpha" maskUnits="userSpaceOnUse" x="1" y="368" width="3839" height="1788">
<path d="M3840 368H1V2155.35H3840V368Z" fill="#CADB7F"/>
</mask>
<g mask="url(#mask0_1_678)">
<path d="M435.938 2242.34C469.186 2198.45 465.88 2074.68 512.905 2109.02C552.215 2137.67 414.997 2323.69 435.203 2350.69C455.593 2377.68 582.707 2429.29 598.138 2414.23C613.568 2399.17 593.729 2351.79 624.773 2296.88C661.511 2232.06 640.203 2143.18 671.431 2150.52C702.658 2157.87 695.494 2208.92 689.065 2253.73C683.003 2295.78 657.47 2422.86 682.636 2432.78C707.801 2442.69 820.588 2442.69 830.875 2429.84C841.161 2416.98 835.65 2367.77 836.569 2333.79C837.671 2291.92 785.503 2231.69 815.077 2221.41C844.651 2211.31 854.203 2256.85 861.367 2291.01C867.98 2322.96 870.185 2412.21 896.452 2417.53C922.72 2422.86 1006.12 2392.19 1014.75 2380.62C1023.38 2369.05 962.03 2287.88 983.889 2289.17C1003.73 2290.45 1017.32 2337.65 1037.71 2370.89C1076.47 2353.63 1107.15 2335.26 1123.68 2318.37C1145.54 2295.96 1154.91 2245.65 1155.64 2185.23C1126.62 2194.59 1041.57 2219.75 1021.91 2196.06C1000.05 2169.62 1147.37 2159.15 1154.72 2138.22C1162.07 2117.28 1158.21 2046.03 1140.58 2016.46C1131.94 2001.96 1080.14 2002.88 1025.59 2023.08C968.276 2044.38 907.474 2084.96 878.083 2065.68C818.384 2026.75 975.623 2011.69 1051.49 1985.98C1088.78 1973.31 1121.11 1961.37 1124.05 1940.99C1126.99 1920.6 1110.45 1895.26 1102.92 1877.08C1094.47 1856.7 1072.43 1809.69 1052.04 1797.93C1031.65 1786.18 960.928 1825.11 896.085 1867.9C803.872 1928.68 787.707 1993.51 749.499 1981.57C711.292 1969.82 772.093 1862.02 838.59 1820.52C893.146 1786.36 995.462 1747.43 984.257 1726.31C973.052 1705.2 890.207 1632.29 832.712 1622.01C775.216 1611.91 688.514 1883.14 651.959 1865.33C613.016 1846.23 693.473 1741.92 714.23 1689.95C728.191 1655.06 746.928 1611.36 741.968 1590.97C736.825 1570.59 653.98 1570.04 625.875 1588.77C597.954 1607.5 586.198 1789.85 537.887 1784.34C483.147 1777.92 542.479 1692.34 552.031 1652.67C555.889 1636.33 555.705 1619.8 554.052 1605.66C531.09 1613.74 508.863 1624.03 488.657 1637.43C397.73 1696.93 388.178 1832.09 388.178 1832.09C388.178 1832.09 306.803 1867.17 270.799 1922.26C250.41 1953.29 228.918 2016.46 233.327 2087.9C248.94 2078.53 267.309 2071.19 285.862 2064.76C328.295 2049.89 380.28 1995.53 384.504 2034.28C388.362 2070.82 258.492 2141.71 255.186 2181.19C254.451 2189.82 262.901 2198.63 267.677 2207.08C292.108 2250.97 369.993 2329.39 388.362 2323.33C410.038 2316.16 401.037 2289.17 436.673 2242.34L435.938 2242.34Z" fill="#76AB9F"/>
<path d="M232.775 2088.08C248.389 2078.72 266.758 2071.37 285.311 2064.95C327.744 2050.07 379.729 1995.71 383.953 2034.46C387.811 2071.01 257.941 2141.89 254.635 2181.37C253.9 2190 262.35 2198.82 267.126 2207.27C291.557 2251.16 369.442 2329.57 387.811 2323.51C409.487 2316.35 400.486 2289.35 436.122 2242.52C469.37 2198.63 466.063 2074.86 513.088 2109.2C552.398 2137.85 415.181 2323.88 435.387 2350.87C455.777 2377.87 582.891 2429.47 598.321 2414.41C613.751 2399.35 593.913 2351.97 624.957 2297.07C661.695 2232.24 640.387 2143.36 671.614 2150.7C702.842 2158.05 695.678 2209.1 689.249 2253.91C683.187 2295.96 657.654 2423.04 682.819 2432.96C707.985 2442.88 820.771 2442.88 831.058 2430.02C841.345 2417.17 835.834 2367.95 836.753 2333.98C837.855 2292.11 785.686 2231.87 815.261 2221.59C844.835 2211.49 854.387 2257.03 861.551 2291.19C868.164 2323.14 870.368 2412.39 896.636 2417.72C922.904 2423.04 1006.3 2392.37 1014.93 2380.81C1023.57 2369.24 962.214 2288.07 984.073 2289.35C1003.91 2290.64 1017.51 2337.83 1037.89 2371.07C1076.65 2353.81 1107.33 2335.45 1123.86 2318.55C1128.82 2313.41 1133.05 2306.8 1136.72 2298.9C1005.75 2248.4 786.605 2110.85 689.249 2044.01C587.484 1974.23 569.849 1946.31 388.178 1832.46C388.178 1832.46 306.803 1867.53 270.799 1922.62C250.41 1953.66 228.918 2016.83 233.326 2088.27L232.775 2088.08Z" fill="#609790"/>
<path d="M1088.78 2290.82C1088.78 2290.82 1014.57 2257.77 908.944 2198.08C856.041 2168.33 795.606 2131.61 732.233 2089.55C668.859 2047.32 604.2 1999.94 537.336 1955.31C504.088 1932.91 470.289 1911.05 437.04 1889.75C403.609 1868.63 370.36 1848.62 338.031 1829.7C305.517 1810.97 273.739 1793.53 243.246 1777.73C227.816 1770.02 212.937 1762.67 198.609 1755.33C183.914 1748.53 169.769 1742.11 156.36 1735.86C128.99 1724.11 103.824 1713.27 81.0466 1705.38C58.4526 1696.56 38.2465 1690.87 21.8979 1685.73C5.36572 1680.59 -7.86011 1678.02 -16.6774 1675.63C-25.6782 1673.43 -30.4542 1672.32 -30.4542 1672.32L-31.7399 1671.96C-41.8429 1669.39 -47.9048 1659.28 -45.5167 1649.18C-42.9451 1639.08 -32.8422 1633.02 -22.7391 1635.41L-22.5553 1635.41C-22.5553 1635.41 -17.5957 1636.7 -8.22742 1639.08C1.14087 1641.84 15.1013 1644.59 32.1847 1650.29C49.2679 1655.98 70.2087 1662.22 93.3539 1671.59C116.866 1680.04 142.583 1691.61 170.504 1703.91C184.281 1710.52 198.609 1717.31 213.488 1724.48C228.183 1732.01 243.246 1739.9 258.676 1747.8C289.353 1764.33 321.499 1782.51 354.196 1801.79C386.709 1821.44 420.141 1842.19 453.389 1863.86C486.637 1885.71 520.252 1908.12 553.501 1931.26C619.997 1976.98 685.207 2025.28 746.377 2068.43C808.097 2111.41 867.429 2149.05 919.23 2179.72C1022.83 2241.24 1095.39 2275.4 1095.39 2275.4C1099.62 2277.42 1101.27 2282.19 1099.43 2286.41C1097.59 2290.45 1092.64 2292.29 1088.59 2290.45L1088.78 2290.82Z" fill="#569188"/>
<path d="M2335.67 2216.08C2364.33 2189.64 2382.33 2167.42 2389.5 2149.79L2399.78 2153.83C2392.07 2172.92 2372.96 2196.61 2343.21 2224.16L2335.67 2216.08Z" fill="#569188"/>
<path d="M1717.37 2577.48C1749.51 2557.65 1783.31 2536.35 1818.77 2514.31C2058.67 2364.09 2357.17 2177.15 2593.94 2115.26L2596.7 2125.91C2361.39 2187.25 2063.63 2373.83 1824.46 2523.49C1789.19 2545.71 1755.21 2566.83 1723.06 2586.66L1717.18 2577.3L1717.37 2577.48Z" fill="#569188"/>
<path d="M2234.46 2015.73C2241.62 2019.22 2229.68 2064.21 2200.11 2143.91C2173.29 2216.08 2130.67 2276.13 2066.38 2318.37C2070.79 2251.34 2100.92 2195.33 2136.18 2135.64C2168.88 2080.37 2227.48 2012.42 2234.64 2015.73L2234.46 2015.73Z" fill="#609790"/>
<path d="M2023.21 2233.16C2015.13 2268.79 1983.17 2357.12 1946.98 2371.26C1912.08 2330.12 1948.27 2263.83 1969.39 2224.16C1996.4 2173.66 2007.97 2104.98 2039.56 2057.78C2049.3 2106.26 2033.68 2186.33 2023.21 2233.16Z" fill="#76AB9F"/>
<path d="M2506.69 2069.17C2486.67 2099.65 2425.5 2170.9 2386.74 2171.46C2368.55 2120.77 2425.87 2071.37 2459.66 2041.62C2502.65 2003.98 2537.92 1943.56 2584.02 1910.69C2576.13 1959.54 2533.14 2028.95 2506.87 2069.17L2506.69 2069.17Z" fill="#76AB9F"/>
<path d="M2689.65 2059.62C2650.15 2066.6 2547.65 2110.86 2543.24 2135.83C2557.76 2149.97 2627.01 2140.79 2683.95 2123.34C2740.35 2106.08 2818.23 2093.04 2865.44 2060.17C2806.66 2046.21 2741.45 2050.44 2689.65 2059.62Z" fill="#609790"/>
<path d="M2253.56 2209.1C2252.83 2149.97 2265.87 2091.39 2288.46 2035.38C2300.59 2005.26 2317.49 1976.98 2327.96 1945.95C2334.75 1925.75 2337.33 1902.42 2347.8 1884.79C2377.19 2001.22 2318.41 2121.51 2253.75 2209.1L2253.56 2209.1Z" fill="#76AB9F"/>
<path d="M2905.67 2358.4C3091.38 2189.64 3418.17 1840.91 3520.12 1402.19L3530.59 1404.58C3428.09 1846.23 3099.65 2196.8 2913.02 2366.3L2905.85 2358.4L2905.67 2358.4Z" fill="#569188"/>
<path d="M3471.99 1565.08C3482.46 1557 3491.46 1547.82 3501.01 1538.27C3507.63 1531.66 3514.24 1525.05 3521.22 1518.62L3528.38 1526.7C3521.4 1532.94 3514.97 1539.37 3508.54 1545.8C3499.18 1555.35 3489.44 1565.08 3478.42 1573.71L3471.81 1565.26L3471.99 1565.08Z" fill="#569188"/>
<path d="M3428.64 1578.85C3428.64 1572.42 3429.19 1566.36 3430.66 1561.04L3441.13 1563.79C3437.27 1578.3 3441.13 1601.07 3444.25 1621.27C3445.9 1631.74 3447.56 1641.47 3447.93 1649.37L3437.09 1649.92C3436.72 1642.57 3435.25 1633.03 3433.6 1622.93C3431.21 1608.42 3428.64 1592.62 3428.64 1578.85Z" fill="#569188"/>
<path d="M3397.23 1734.58C3414.49 1722.46 3433.78 1710.15 3447.01 1712.17L3445.35 1722.83C3434.7 1721.17 3411.19 1737.88 3403.47 1743.39L3397.23 1734.58Z" fill="#569188"/>
<path d="M3434.7 1655.06C3443.7 1641.66 3456.19 1633.76 3468.13 1626.23C3473.83 1622.56 3479.7 1618.89 3485.21 1614.48L3491.83 1622.93C3485.95 1627.52 3479.7 1631.56 3473.83 1635.23C3462.25 1642.58 3451.42 1649.37 3443.7 1660.94L3434.7 1654.88L3434.7 1655.06Z" fill="#569188"/>
<path d="M3380.88 1669.94L3391.35 1667.55C3397.04 1693.26 3402.37 1730.35 3394.84 1760.29L3384.37 1757.72C3391.35 1729.8 3386.39 1694.54 3380.88 1669.94Z" fill="#569188"/>
<path d="M3300.97 1813.36L3310.89 1809.14C3322.28 1836.32 3321.91 1860.19 3320.26 1886.27L3309.42 1885.53C3311.08 1860.74 3311.44 1838.15 3300.97 1813.36Z" fill="#569188"/>
<path d="M3267.72 1949.99C3269.01 1940.25 3325.4 1913.08 3325.95 1912.71C3339.55 1907.57 3353.32 1902.79 3366.92 1898.02C3380.69 1893.24 3394.47 1888.28 3408.06 1883.33L3411.92 1893.43C3398.33 1898.57 3384.55 1903.34 3370.59 1908.3C3357 1913.08 3343.41 1917.85 3329.81 1922.99C3320.26 1926.66 3281.69 1948.7 3277.83 1953.29L3273.97 1950.35L3270.11 1955.68L3267.72 1950.17L3267.72 1949.99ZM3278.38 1950.17C3278.38 1948.89 3277.46 1947.6 3276.36 1946.87L3274.15 1949.99L3278.38 1950.35L3278.38 1950.17Z" fill="#569188"/>
<path d="M3124.81 2132.89C3134.73 2124.63 3148.69 2041.99 3143.18 1991.12L3153.84 1990.02C3158.8 2036.85 3147.59 2127.75 3131.79 2141.16L3124.81 2132.89Z" fill="#569188"/>
<path d="M3165.41 2086.25C3195.9 2070.64 3242.01 2063.48 3280.03 2068.25L3278.75 2078.9C3243.29 2074.31 3198.84 2081.29 3170.37 2095.8L3165.41 2086.25Z" fill="#569188"/>
<path d="M3558.88 1042.62C3566.59 1042.99 3577.06 1117.92 3577.25 1211.57C3577.25 1296.41 3575.22 1346.73 3513.69 1447.18C3522.51 1372.26 3503.03 1307.43 3515.16 1231.22C3526.36 1160.89 3551.16 1042.07 3559.06 1042.44L3558.88 1042.62Z" fill="#609790"/>
<path d="M3056.48 1800.5C3066.21 1800.87 3074.48 1857.25 3079.81 1961.01C3084.58 2055.03 3065.48 2142.99 3013.5 2221.41C2986.13 2143.91 2992.74 2066.6 3003.58 1982.49C3013.68 1904.63 3046.74 1800.14 3056.48 1800.5Z" fill="#609790"/>
<path d="M3673.68 1753.31C3677.17 1759 3623.17 1806.01 3555.94 1851.92C3495.13 1893.43 3448.66 1900.04 3375.73 1902.61C3416.51 1854.86 3470.89 1826.58 3531.32 1798.12C3587.16 1771.67 3670.19 1747.62 3673.68 1753.31Z" fill="#76AB9F"/>
<path d="M3433.97 1429C3444.25 1462.97 3459.68 1553.33 3435.99 1582.89C3386.57 1564.9 3385.29 1491.26 3384 1447.37C3382.53 1391.54 3359.2 1327.63 3363.24 1272.54C3394.84 1308.9 3420.37 1384.38 3433.97 1429.19L3433.97 1429Z" fill="#76AB9F"/>
<path d="M3555.75 1739.54C3525.81 1745.6 3448.84 1750.37 3429.37 1725.39C3453.8 1681.87 3514.42 1688.3 3550.61 1691.79C3596.53 1696.2 3653.48 1681.51 3697.93 1690.87C3661.93 1716.21 3595.25 1731.82 3555.94 1739.72L3555.75 1739.54Z" fill="#76AB9F"/>
<path d="M3402 2043.28C3371.33 2062.38 3278.56 2095.43 3248.44 2073.76C3260.01 2012.61 3338.63 1999.2 3379.59 1988.92C3431.58 1975.7 3489.07 1935.48 3541.24 1928.87C3510.56 1973.13 3442.6 2018.12 3402 2043.28Z" fill="#609790"/>
<path d="M3586.43 1402.56C3608.29 1381.62 3636.03 1362.52 3658.62 1341.04C3677.36 1323.23 3703.81 1291.64 3730.08 1289.99C3712.26 1332.41 3681.95 1385.11 3655.13 1422.94C3619.31 1473.81 3562.37 1511.46 3507.26 1538.45C3522.14 1486.85 3545.1 1442.04 3586.43 1402.37L3586.43 1402.56Z" fill="#76AB9F"/>
<path d="M3270.48 2136.57C3304.28 2135.1 3342.12 2139.32 3376.84 2137.85C3405.86 2136.75 3450.87 2129.96 3475.48 2147.22C3430.66 2169.25 3367.65 2190.74 3318.06 2202.49C3251.38 2218.47 3172.76 2211.86 3105.16 2194.6C3153.65 2163.01 3206.74 2139.32 3270.66 2136.38L3270.48 2136.57Z" fill="#76AB9F"/>
<path d="M3247.33 1709.79C3242.01 1683.71 3241.09 1654.33 3235.76 1627.7C3231.35 1605.3 3220.33 1570.59 3231.72 1551.49C3255.42 1585.65 3280.77 1633.94 3296.56 1672.14C3317.87 1723.38 3321.91 1784.16 3315.48 1836.68C3283.34 1799.77 3257.44 1759.18 3247.33 1709.97L3247.33 1709.79Z" fill="#76AB9F"/>
<path d="M3469.23 1630.27C3507.63 1591.52 3555.02 1562.33 3606.82 1540.66C3634.56 1529.09 3664.5 1521.74 3692.05 1508.52C3709.87 1499.89 3726.95 1486.48 3745.51 1481.89C3688.19 1576.47 3572.1 1624.21 3469.23 1630.09L3469.23 1630.27Z" fill="#609790"/>
<path d="M3149.06 2015.36C3129.04 1961.37 3121.87 1903.16 3124.08 1844.39C3125.18 1812.81 3131.43 1781.22 3130.87 1749.27C3130.51 1728.52 3125.18 1706.11 3129.04 1686.65C3194.25 1783.98 3179.74 1913.81 3149.06 2015.55L3149.06 2015.36Z" fill="#76AB9F"/>
<path d="M3389.33 1680.96C3405.49 1641.11 3354.61 1580.14 3331.46 1550.39C3301.71 1512.01 3261.29 1495.11 3231.9 1455.63C3219.05 1491.62 3272.68 1552.59 3293.26 1580.32C3319.16 1615.21 3360.86 1655.06 3389.33 1680.96Z" fill="#609790"/>
<path d="M1345.76 1981.39C1362.29 1968.53 1397.2 1945.21 1408.4 1959.72C1419.61 1974.23 1382.5 1998.83 1363.58 2000.12C1381.4 2001.04 1430.08 2002.87 1430.08 2020.69C1430.08 2038.5 1397.56 2036.11 1378.46 2030.97C1394.07 2043.09 1401.79 2075.41 1389.11 2083.49C1377.91 2090.65 1349.44 2060.72 1343.01 2040.7C1347.05 2052.64 1332.35 2096.53 1317.84 2096.71C1292.86 2096.71 1301.49 2053.74 1311.96 2040.7C1303.7 2049.52 1275.96 2058.52 1265.86 2050.62C1255.75 2042.72 1292.86 2021.24 1302.96 2017.56C1288.45 2019.03 1248.41 2007.46 1251.71 1990.02C1254.83 1972.76 1296.72 1987.26 1307.74 1996.08C1300.21 1988.18 1268.24 1952.92 1281.1 1938.42C1293.96 1923.91 1325.56 1965.59 1331.62 1975.33C1329.78 1964.31 1328.86 1920.24 1342.82 1919.32C1356.78 1918.4 1357.33 1972.02 1346.13 1981.39L1345.76 1981.39Z" fill="#EBDFE1"/>
<path d="M1342.82 1990.02C1331.62 1986.9 1320.23 1993.51 1317.47 2004.53C1314.9 2015.55 1318.76 2026.56 1330.15 2029.69C1341.35 2032.81 1348.89 2027.3 1354.03 2017.2C1358.99 2007.83 1354.03 1993.14 1342.82 1990.02Z" fill="#FFA64D"/>
<path d="M2836.23 1893.24C2819.52 1916.01 2783.7 1958.43 2766.8 1942.09C2749.9 1925.74 2788.29 1880.39 2810.52 1873.04C2789.02 1877.26 2730.61 1889.57 2726.2 1865.14C2721.98 1840.72 2761.29 1833.92 2785.35 1835.21C2763.68 1823.27 2746.78 1781.4 2760 1766.53C2771.76 1753.31 2812.9 1785.63 2825.4 1811.15C2817.68 1795.91 2824.48 1731.27 2841.74 1726.68C2871.5 1718.78 2871.69 1780.49 2862.32 1801.6C2870.03 1786.91 2900.89 1765.98 2914.85 1773.69C2928.81 1781.4 2889.87 1822.36 2878.67 1830.44C2895.57 1823.82 2946.26 1827.68 2946.63 1852.47C2947 1877.26 2893.54 1870.1 2878.3 1861.29C2889.14 1869.73 2935.98 1908.3 2924.22 1932.17C2912.47 1956.05 2864.52 1908.48 2854.97 1897.1C2859.75 1911.6 2871.69 1971.84 2855.15 1977.53C2838.62 1983.04 2824.84 1909.77 2836.05 1893.42L2836.23 1893.24Z" fill="#EBDFE1"/>
<path d="M2837.52 1880.39C2853.5 1881.3 2866.73 1868.82 2867.09 1852.84C2867.46 1837.05 2859.01 1823.09 2843.21 1822.17C2827.23 1821.25 2819.15 1831.17 2814.92 1846.41C2810.88 1860.74 2821.72 1879.47 2837.52 1880.39Z" fill="#FFA64D"/>
<path d="M3.34439 1478.95L8.12054 1459.85C135.602 1491.44 254.083 1506.31 255.369 1506.5L252.981 1525.96C251.879 1525.96 132.296 1510.72 3.52826 1478.95L3.34439 1478.95Z" fill="#76AB9F"/>
<path d="M245.45 1519.72C249.675 1476.38 373.666 1376.48 402.322 1421.1C430.978 1465.73 389.464 1489.97 389.464 1489.97C389.464 1489.97 442.918 1494.38 439.428 1541.02C435.938 1587.66 380.463 1576.28 380.463 1576.28C380.463 1576.28 411.874 1601.07 394.423 1635.59C376.973 1670.12 238.837 1589.68 245.45 1519.9L245.45 1519.72Z" fill="#EBDFE1"/>
<path d="M274.106 1472.34C277.413 1505.39 271.351 1536.61 260.881 1567.1C260.881 1567.1 239.205 1538.27 242.328 1517.51C245.451 1496.58 274.106 1472.52 274.106 1472.52L274.106 1472.34Z" fill="#76AB9F"/>
<path d="M3519.01 660.471L3535.55 650.738C3536.83 653.125 3670.01 884.511 3675.52 1216.9L3656.42 1217.27C3651.09 890.204 3520.48 662.858 3519.2 660.471L3519.01 660.471Z" fill="#76AB9F"/>
<path d="M3534.63 661.021C3498.07 679.568 3352.96 625.395 3373.35 578.383C3393.74 531.371 3434.88 554.143 3434.88 554.143C3434.88 554.143 3410.09 506.58 3449.03 485.645C3487.97 464.71 3508.18 517.598 3508.18 517.598C3508.18 517.598 3511.12 478.3 3547.85 475.545C3584.59 472.79 3593.59 630.904 3534.63 660.837L3534.63 661.021Z" fill="#EBDFE1"/>
<path d="M3481.91 661.021C3506.34 641.372 3534.44 630.537 3564.2 623.926C3564.2 623.926 3552.81 656.981 3534.44 664.878C3516.26 672.958 3481.91 661.021 3481.91 661.021Z" fill="#76AB9F"/>
</g>
</g>
<g opacity="0.5">
<mask id="mask1_1_678" style="mask-type:alpha" maskUnits="userSpaceOnUse" x="1" y="3" width="3839" height="4839">
<path d="M3840 3.76752H1V4841.71H3840V3.76752Z" fill="#CADB7F"/>
</mask>
<g mask="url(#mask1_1_678)">
<path d="M899.778 575.437C911.675 566.471 851.458 442.411 832.057 403.437C865.918 377.454 905.086 350.556 948.282 324.207C968.415 363.181 1026.62 472.42 1040.9 460.892C1055.17 449.181 1020.21 330.245 1007.77 289.441C1018.38 283.402 1029.36 277.547 1040.35 271.509C1057.55 315.058 1113.56 453.939 1125.27 440.764C1136.99 427.59 1086.47 296.211 1070.36 255.773C1111.18 234.913 1153.64 214.785 1197.39 196.121C1211.3 227.045 1264.01 339.577 1284.33 322.56C1304.46 305.909 1275.91 199.049 1267.12 167.943C1276.46 164.283 1285.79 160.989 1295.31 157.513C1307.57 189.168 1351.31 298.956 1364.31 286.696C1376.94 274.802 1353.15 174.713 1344.73 140.496C1383.53 127.687 1422.51 116.526 1461.13 107.194C1472.85 140.862 1503.6 225.032 1515.13 218.994C1526.66 212.956 1501.58 131.347 1491.52 100.24C1503.05 97.6788 1514.76 95.1171 1526.11 93.1043C1533.25 126.955 1551.73 205.819 1568.02 194.475C1583.95 183.313 1575.71 115.611 1571.13 85.9681C1574.43 85.4192 1577.91 84.8703 1581.2 84.3213C1626.23 78.466 1672.72 74.9894 1718.84 75.7213C1720.3 97.1299 1724.33 137.385 1734.03 134.275C1743.55 131.347 1748.49 95.483 1750.32 76.8192C1832.69 81.7596 1912.67 101.521 1980.02 147.266C1900.22 176.543 1872.4 225.581 1839.82 283.585C1809.99 267.483 1742.09 232.717 1732.75 246.075C1722.87 259.981 1786.38 312.313 1811.09 331.892C1788.76 366.658 1759.47 403.071 1727.44 437.837C1693.22 411.122 1585.96 329.879 1567.66 344.883C1549.35 359.705 1642.7 458.147 1674.91 491.266C1650.94 513.956 1627.14 534.998 1604.81 552.381C1593.1 561.53 1582.12 569.947 1571.32 578.181C1536.91 547.075 1431.12 453.024 1419.22 459.977C1407.14 466.93 1512.56 568.118 1544.6 598.492C1531.42 608.373 1518.6 617.888 1506.34 626.854C1480.53 599.773 1390.85 508.283 1368.52 522.373C1347.11 535.73 1421.6 632.709 1449.42 667.292C1418.3 688.884 1387.56 709.377 1353.51 732.067C1320.57 702.424 1223.19 616.607 1209.47 625.573C1195.19 634.905 1294.58 726.028 1323.31 751.828C1311.23 759.697 1299.15 767.199 1287.07 774.518C1271.88 756.403 1208.55 683.211 1193.73 690.53C1180.36 697.301 1230.33 767.199 1251.2 795.56C1215.14 816.237 1179.08 834.901 1143.58 851.735C1107.7 817.335 1023.69 740.118 1004.84 748.901C985.986 757.867 1050.78 843.684 1079.51 880.097C1064.14 886.501 1049.13 892.356 1034.12 898.028C1014.36 868.386 961.094 791.535 943.34 794.645C925.586 797.756 976.468 879.365 997.151 911.386C815.584 973.05 664.218 977.99 605.831 926.207C513.95 844.599 533.9 744.143 593.751 649.909C612.969 666.011 649.576 694.556 656.165 684.675C662.571 674.977 638.411 631.611 623.768 607.092C632.92 595.198 642.621 583.488 652.504 571.96C670.258 599.224 736.149 699.13 746.582 685.773C757.015 672.415 703.387 564.275 687.646 533.535C708.695 511.76 730.292 491.083 751.341 472.054C765.251 494.194 810.826 564.641 820.16 557.139C828.946 550.003 793.438 476.262 779.161 447.351C787.215 440.398 794.902 433.811 802.406 427.407C803.321 426.675 804.419 425.76 805.335 425.028C824.187 461.99 888.065 584.403 900.145 575.254L899.778 575.437Z" fill="#76AB9F"/>
<path d="M1733.67 134.274C1743.18 131.346 1748.12 95.4821 1749.95 76.8183C1832.32 81.7587 1912.3 101.52 1979.66 147.265C1653.31 137.384 1259.07 475.346 1108.07 589.708C977.383 688.7 674.65 869.3 595.215 916.325C515.231 836.547 535.547 740.3 593.202 649.908C612.42 666.01 649.026 694.555 655.615 684.674C662.021 674.976 637.861 631.61 623.219 607.091C632.37 595.197 642.071 583.487 651.955 571.959C669.709 599.223 735.6 699.129 746.032 685.772C756.465 672.415 702.837 564.274 687.096 533.534C708.145 511.759 729.742 491.082 750.791 472.053C764.701 494.193 810.276 564.64 819.61 557.138C828.396 550.002 792.888 476.261 778.612 447.351C786.665 440.397 794.352 433.81 801.857 427.406C802.772 426.674 803.87 425.759 804.785 425.027C823.637 461.989 887.515 584.402 899.595 575.253C911.492 566.287 851.275 442.227 831.874 403.253C865.734 377.27 904.903 350.372 948.098 324.023C968.231 362.997 1026.43 472.236 1040.71 460.708C1054.99 448.997 1020.03 330.061 1007.58 289.257C1018.2 283.218 1029.18 277.363 1040.16 271.325C1057.37 314.874 1113.37 453.755 1125.09 440.58C1136.8 427.406 1086.29 296.027 1070.18 255.589C1111 234.729 1153.46 214.601 1197.2 195.938C1211.11 226.861 1263.83 339.393 1284.14 322.376C1304.28 305.725 1275.72 198.865 1266.94 167.759C1276.27 164.099 1285.61 160.806 1295.12 157.329C1307.39 188.984 1351.13 298.772 1364.13 286.512C1376.76 274.618 1352.96 174.529 1344.54 140.312C1383.34 127.503 1422.33 116.342 1460.95 107.01C1472.66 140.678 1503.41 224.848 1514.94 218.81C1526.47 212.772 1501.4 131.163 1491.33 100.057C1502.86 97.4949 1514.58 94.9332 1525.93 92.9204C1533.06 126.772 1551.55 205.635 1567.84 194.291C1583.76 183.129 1575.53 115.427 1570.95 85.7842C1574.25 85.2353 1577.72 84.6864 1581.02 84.1374C1626.04 78.2821 1672.53 74.8055 1718.66 75.5374C1720.12 96.946 1724.15 137.201 1733.85 134.091L1733.67 134.274Z" fill="#609790"/>
<path d="M1837.99 165.745C1837.99 165.745 1829.94 167.209 1814.93 170.137C1800.47 173.796 1778.87 179.469 1752.52 189.899C1725.98 199.779 1694.5 214.235 1659.17 232.35C1623.85 250.465 1584.68 272.239 1542.95 298.039C1459.49 349.273 1364.86 413.682 1266.39 486.873C1216.79 523.103 1165.36 560.614 1113.19 598.673C1060.85 636.733 1007.4 674.61 953.772 712.486C899.961 749.997 845.967 787.508 792.156 823.372C765.434 841.669 738.528 859.052 711.806 876.435C685.266 893.818 658.91 910.652 632.554 926.937C606.563 943.406 580.573 959.142 554.949 974.329C529.507 989.699 504.249 1004.15 479.54 1017.88C430.122 1045.69 382.351 1070.39 337.508 1091.62C292.666 1112.84 250.569 1130.59 212.865 1145.23C174.977 1159.5 141.666 1171.4 113.845 1179.45C86.2074 1188.41 64.0607 1194.09 49.0522 1197.93C34.0438 1201.95 25.9902 1204.15 25.9902 1204.15C15.3745 1206.9 4.57588 1200.67 1.64742 1190.06C-1.09807 1179.45 5.12471 1168.65 15.7406 1165.72L16.4729 1165.54C16.4729 1165.54 24.3431 1163.53 38.9856 1159.69C53.6279 1155.84 75.2255 1150.35 102.131 1141.75C129.403 1133.89 161.799 1122.36 198.771 1108.64C235.56 1094.55 276.742 1077.16 320.852 1056.49C364.78 1035.63 412.185 1012.21 461.237 985.125C485.763 971.767 511.021 957.861 536.28 942.857C561.721 928.218 587.711 912.848 613.701 896.746C639.875 880.827 666.414 864.542 692.954 847.525C719.676 830.691 746.582 813.491 773.304 795.742C827.298 760.61 881.475 723.831 935.469 686.869C989.463 649.725 1043.27 612.397 1095.8 575.069C1148.33 537.558 1200.13 500.78 1250.1 465.099C1350.4 393.554 1446.31 329.694 1531.97 280.29C1574.61 255.405 1614.88 234.545 1651.12 217.162C1687.36 199.596 1720.12 186.605 1747.58 177.456C1774.85 167.941 1797.36 163.001 1812.73 159.707C1827.93 157.511 1835.98 156.23 1835.98 156.23C1838.73 155.864 1841.1 157.694 1841.65 160.439C1842.02 163.001 1840.19 165.562 1837.63 165.928L1837.99 165.745Z" fill="#569188"/>
<path d="M276.404 474.467C320.515 489.288 377.254 576.935 393.544 530.824C407.271 492.033 222.959 427.99 224.241 399.445C225.522 370.901 289.583 274.288 307.52 277.581C325.457 280.875 334.242 323.143 382.013 346.747C438.569 374.56 466.024 446.471 484.327 426.526C502.63 406.582 473.345 374.377 447.355 346.198C423.012 319.849 344.675 243.547 357.487 224.517C370.299 205.488 448.819 151.875 462.18 155.9C475.541 159.926 495.126 196.888 511.965 220.126C532.647 248.671 525.143 315.641 550.584 308.688C576.025 301.735 561.017 265.505 549.669 238.241C539.053 212.807 498.054 149.679 513.795 133.394C529.535 117.109 602.199 98.811 613.73 102.654C625.26 106.679 621.234 192.313 635.876 180.968C649.055 170.722 635.876 131.198 634.412 98.445C669.737 92.0407 699.937 90.2109 719.338 94.0535C745.329 99.1769 775.712 129.917 804.996 171.637C780.287 178.773 709.088 201.828 706.709 227.811C703.964 256.722 811.769 193.777 826.777 204.939C841.786 216.1 873.084 267.518 874.914 296.428C875.829 310.518 839.406 334.671 791.635 346.564C741.485 359.007 679.804 359.739 668.456 387.186C645.577 442.811 762.167 378.403 827.326 360.105C859.356 351.139 887.543 344.003 899.257 356.811C910.971 369.62 911.703 395.237 914.998 411.339C918.842 429.637 925.797 472.82 917.194 490.752C908.592 508.684 840.688 515.271 775.163 516.369C681.817 518.016 639.72 480.505 618.854 506.854C597.989 533.203 691.517 579.314 757.774 576.752C812.135 574.556 901.82 552.965 904.016 572.909C906.212 592.854 883.333 683.246 848.192 717.646C813.05 752.046 623.247 604.565 606.225 634.207C588.105 666.046 694.08 700.446 733.248 726.612C759.605 744.178 793.649 765.769 799.689 782.42C805.729 799.071 748.257 838.961 719.887 839.327C691.518 839.51 596.342 718.012 565.409 745.092C530.268 775.65 612.448 807.122 637.89 829.995C648.322 839.51 656.192 851.22 661.683 861.65C641.733 866.956 621.417 870.25 600.917 870.799C509.219 872.629 438.02 782.969 438.02 782.969C438.02 782.969 364.625 797.241 313.376 776.016C284.457 764.122 239.249 730.271 208.317 678.488C223.692 677.573 239.981 673.914 255.905 669.705C292.511 659.824 354.741 672.999 339.184 643.905C324.541 616.641 200.08 629.084 179.032 603.284C174.456 597.611 176.104 587.548 175.371 579.314C171.528 537.228 188.366 445.373 204.107 440.799C222.593 435.309 229.182 458.547 276.404 474.284L276.404 474.467Z" fill="#76AB9F"/>
<path d="M208.5 678.855C223.874 677.94 240.164 674.28 256.088 670.072C292.694 660.191 354.924 673.366 339.366 644.272C324.724 617.008 200.263 629.451 179.215 603.651C174.639 597.978 176.286 587.914 175.554 579.68C171.71 537.595 188.549 445.74 204.29 441.165C222.776 435.676 229.365 458.914 276.587 474.65C320.697 489.472 377.437 577.119 393.727 531.008C407.454 492.217 223.142 428.174 224.423 399.629C225.704 371.084 289.765 274.472 307.702 277.765C325.639 281.059 334.425 323.327 382.196 346.931C438.752 374.744 466.207 446.655 484.51 426.71C502.813 406.765 473.528 374.561 447.538 346.382C423.195 320.033 344.857 243.731 357.669 224.701C370.482 205.672 449.002 152.059 462.363 156.084C475.724 160.11 495.309 197.071 512.147 220.31C532.83 248.855 525.326 315.825 550.767 308.872C576.208 301.918 561.2 265.689 549.852 238.425C539.236 212.991 498.237 149.863 513.978 133.578C529.718 117.476 602.381 98.9948 613.912 102.837C625.443 106.68 621.417 192.497 636.059 181.152C649.237 170.906 636.059 131.382 634.595 98.6288C669.92 92.2246 700.12 90.3948 719.521 94.2373C725.378 95.3352 731.601 98.0799 737.824 101.739C670.652 199.267 583.529 399.446 547.472 492.582C509.951 589.744 510.866 617.557 438.569 783.519C438.569 783.519 365.174 797.791 313.925 776.566C285.006 764.672 239.798 730.821 208.866 679.038L208.5 678.855Z" fill="#609790"/>
<path d="M721.351 137.419C721.351 137.419 687.124 195.79 644.478 288.194C623.063 334.305 599.818 388.832 577.489 448.118C555.525 507.403 533.195 572.177 508.852 635.671C496.772 667.509 484.143 699.348 471.331 730.454C458.519 761.56 445.157 791.935 431.796 821.212C418.252 850.305 404.708 878.301 391.163 904.467C384.208 917.458 377.436 930.084 370.847 942.344C363.892 954.42 357.12 966.131 350.714 977.293C337.169 999.433 324.723 1019.56 312.46 1036.76C300.746 1054.33 289.032 1068.78 279.881 1080.86C270.546 1092.94 262.127 1101.72 257.002 1107.94C251.694 1114.16 248.765 1117.45 248.765 1117.45C241.993 1125.32 230.096 1126.05 222.226 1119.28C214.356 1112.51 213.624 1100.62 220.396 1092.75L221.311 1091.84C221.311 1091.84 224.057 1088.73 229.181 1083.05C234.123 1077.2 242.177 1069.15 251.145 1057.8C260.113 1046.46 271.461 1032.92 282.992 1016.08C295.072 999.799 307.518 980.403 320.88 959.178C327.286 948.382 334.058 937.22 341.013 925.51C347.602 913.616 354.557 901.356 361.512 888.731C375.24 863.297 388.967 836.033 402.694 807.488C416.239 778.943 429.966 749.118 443.144 718.56C456.322 688.003 469.317 656.713 481.947 625.241C507.571 562.296 529.901 498.62 554.061 438.969C578.221 379.5 603.113 325.156 625.809 279.228C671.2 187.373 707.257 129.002 707.257 129.002C709.637 125.16 714.761 123.879 718.605 126.258C722.449 128.636 723.73 133.577 721.351 137.419Z" fill="#569188"/>
<path d="M3629.71 390.481L3638.86 384.442C3660.46 416.647 3679.49 438.055 3695.6 447.753L3689.92 457.085C3672.35 446.472 3652.04 424.149 3629.71 390.481Z" fill="#569188"/>
<path d="M3629.71 542.719C3631.17 539.791 3633 536.315 3635.01 532.472C3642.88 517.834 3653.5 497.889 3654.05 479.774L3665.03 480.14C3664.3 500.817 3652.95 522.042 3644.71 537.596C3642.7 541.255 3641.05 544.549 3639.59 547.476L3629.71 542.719Z" fill="#569188"/>
<path d="M3578.46 400.91C3592.37 371.817 3609.57 329.182 3599.32 295.148L3609.94 292.038C3621.29 329.731 3603.17 375.11 3588.34 405.668L3578.46 400.91Z" fill="#569188"/>
<path d="M3581.2 244.098L3589.62 237.144C3615.61 268.8 3655.51 294.051 3670.34 303.566C3673.27 305.395 3675.28 306.676 3676.38 307.591L3669.97 316.557C3668.87 315.825 3667.04 314.544 3664.3 312.898C3648.92 303.2 3608.11 277.4 3580.84 244.28L3581.2 244.098Z" fill="#569188"/>
<path d="M3521.72 261.847C3539.84 245.745 3561.44 209.698 3561.44 188.839L3561.44 188.473L3572.42 188.473C3572.42 188.473 3572.42 188.473 3572.42 188.839C3572.42 215.188 3547.16 253.796 3529.04 269.898L3521.72 261.664L3521.72 261.847Z" fill="#569188"/>
<path d="M3511.65 59.1062L3520.44 52.519C3541.49 81.2467 3584.5 102.838 3597.31 108.877L3592.73 118.757C3579.37 112.536 3534.35 89.8467 3511.65 59.1062Z" fill="#569188"/>
<path d="M3481.63 106.132C3483.1 98.6295 3485.29 91.3104 3487.49 83.4423C3493.17 63.8636 3499.02 43.5529 3494.45 20.1316L3505.25 17.9359C3510.37 43.9189 3503.96 66.4253 3498.11 86.37C3495.91 94.0551 3493.9 101.191 3492.43 108.144L3481.63 106.132Z" fill="#569188"/>
<path d="M3370.35 -276.477L3380.42 -280.686C3394.88 -246.103 3410.44 -209.324 3426.73 -171.082C3536.91 88.3825 3673.82 411.523 3697.43 654.153L3686.45 655.251C3663.02 414.085 3526.48 92.042 3416.66 -166.873C3400.37 -205.116 3384.81 -241.894 3370.35 -276.477Z" fill="#569188"/>
<path d="M3852.09 316.192C3847.51 322.596 3805.05 303.932 3731.47 262.213C3664.67 224.519 3612.32 173.102 3580.84 103.204C3646.18 118.209 3696.51 156.451 3749.77 200.549C3799.01 241.353 3856.66 309.787 3852.27 316.192L3852.09 316.192Z" fill="#609790"/>
<path d="M3495.36 712.524C3488.59 711.243 3490.42 638.051 3501.95 555.894C3512.38 481.421 3539.29 441.898 3587.61 384.991C3595.66 448.668 3579.56 509.051 3559.42 574.375C3540.94 634.758 3502.13 713.988 3495.36 712.707L3495.36 712.524Z" fill="#76AB9F"/>
<path d="M3671.25 74.1099C3637.58 60.5694 3555.58 15.1907 3547.34 -22.503C3593.28 -50.3158 3652.95 -4.38806 3688.64 22.6928C3734.03 57.0929 3799.93 79.4163 3841.29 117.842C3792.05 119.855 3715.55 91.8588 3671.25 74.1099Z" fill="#76AB9F"/>
<path d="M3756.55 575.655C3729.64 551.136 3669.06 479.774 3674.73 441.532C3727.44 431.651 3767.16 495.693 3790.96 533.57C3821.34 581.693 3875.15 625.974 3900.23 676.476C3853.55 661.106 3791.69 607.859 3756.55 575.655Z" fill="#76AB9F"/>
<path d="M3737.33 757.17C3736.78 717.281 3709.14 609.506 3685.35 601.089C3669.24 613.166 3667.23 682.698 3675.46 741.617C3683.7 799.804 3684.25 878.485 3709.14 930.085C3732.2 874.459 3738.24 809.685 3737.33 757.17Z" fill="#609790"/>
<path d="M3399.64 231.837C3407.69 193.045 3451.25 96.4323 3490.97 92.2238C3530.5 151.875 3482 221.407 3459.49 260.564C3430.75 310.335 3419.41 386.637 3385.54 430.918C3373.65 371.267 3389.21 283.071 3399.82 232.02L3399.64 231.837Z" fill="#609790"/>
<path d="M3467.73 398.531C3447.59 421.953 3421.05 444.276 3400.37 468.246C3382.98 488.191 3359.37 522.591 3332.65 527.714C3346.19 483.799 3371.45 428.174 3394.7 387.553C3425.81 333.025 3479.26 285.084 3532.88 251.416C3523.37 303.931 3505.8 354.433 3467.73 398.714L3467.73 398.531Z" fill="#76AB9F"/>
<path d="M3423.98 -48.851C3423.07 6.77457 3409.16 62.0342 3386.28 114.549C3374.01 142.728 3357.17 169.443 3346.38 198.536C3339.42 217.383 3336.31 239.524 3325.88 255.992C3300.98 145.839 3352.42 28.5491 3423.98 -48.851Z" fill="#76AB9F"/>
<path d="M3643.07 527.715C3641.24 583.34 3626.23 638.234 3602.44 690.383C3589.62 718.379 3572.42 744.728 3561.07 773.638C3553.75 792.485 3550.27 814.443 3539.66 830.728C3516.78 720.208 3570.22 603.834 3643.07 527.715Z" fill="#609790"/>
<path d="M3658.81 304.663C3717.01 313.263 3772.65 335.403 3824.27 366.327C3851.91 382.978 3877.16 404.02 3906.08 419.208C3924.75 429.088 3947.45 435.31 3963.19 448.301C3844.04 458.914 3734.95 382.063 3658.81 304.663Z" fill="#76AB9F"/>
<path d="M2081.82 495.511C2059.3 480.872 2016.66 448.485 2029.29 428.906C2042.1 409.328 2087.49 443.911 2096.83 466.234C2090.42 444.277 2072.3 384.626 2093.9 377.306C2115.49 369.987 2126.29 410.243 2128.12 435.494C2136.18 411.523 2172.05 388.834 2187.06 400.728C2200.42 411.341 2176.26 458.366 2154.66 474.285C2167.48 464.404 2226.78 463.672 2233 481.238C2243.8 511.43 2187.97 519.115 2167.84 511.796C2182.12 518.2 2204.63 547.843 2199.32 563.396C2194.01 578.949 2152.47 543.085 2143.68 532.473C2151.55 549.49 2154.3 602.553 2131.97 606.03C2109.64 609.507 2109.82 552.783 2115.68 535.766C2109.27 548.026 2079.99 601.639 2057.11 592.124C2034.23 582.792 2071.2 526.983 2080.54 515.638C2067.91 522.409 2015.01 542.17 2007.87 525.519C2000.92 508.868 2065.53 485.813 2081.63 495.511L2081.82 495.511Z" fill="#EBDFE1"/>
<path d="M2093.71 495.51C2094.63 510.514 2107.44 521.493 2121.9 520.029C2136.36 518.565 2147.89 509.234 2146.98 494.229C2146.06 479.225 2136.18 472.638 2121.9 470.442C2108.36 468.429 2092.8 480.506 2093.71 495.51Z" fill="#FFA64D"/>
<path d="M3796.26 1611.14C3797.18 1608.94 3881.92 1390.28 3842.39 1100.62L3859.23 1098.25C3899.31 1392.66 3812.92 1615.16 3812 1617.36L3796.08 1611.14L3796.26 1611.14Z" fill="#76AB9F"/>
<path d="M3809.81 1608.57C3775.03 1597.05 3654.05 1664.57 3678.39 1703.36C3702.55 1742.15 3736.05 1716.53 3736.05 1716.53C3736.05 1716.53 3720.49 1761.91 3757.83 1775.09C3794.98 1788.26 3805.78 1738.86 3805.78 1738.86C3805.78 1738.86 3813.83 1773.26 3846.6 1770.69C3879.36 1768.13 3866 1627.24 3809.81 1608.76L3809.81 1608.57Z" fill="#FFEBAB"/>
<path d="M3763.32 1615.71C3787.66 1629.8 3813.83 1635.65 3841.11 1637.48C3841.11 1637.48 3826.46 1609.85 3809.26 1605.28C3792.05 1600.71 3763.32 1615.89 3763.32 1615.89L3763.32 1615.71Z" fill="#76AB9F"/>
<path d="M3578.64 1624.49C3579.92 1622.66 3714.45 1434.01 3848.61 1178.39L3864.17 1186.62C3729.28 1443.52 3594.2 1632.91 3592.92 1634.74L3578.64 1624.49Z" fill="#76AB9F"/>
<path d="M3585.78 1621.38C3620.19 1639.49 3660.28 1776.18 3613.6 1784.6C3566.93 1793.01 3561.07 1750.38 3561.07 1750.38C3561.07 1750.38 3539.29 1793.01 3501.77 1774.17C3464.25 1755.32 3492.8 1713.42 3492.8 1713.42C3492.8 1713.42 3461.69 1730.98 3439.17 1704.63C3416.66 1678.29 3530.32 1591.92 3585.78 1621.2L3585.78 1621.38Z" fill="#EBDFE1"/>
<path d="M3615.07 1661.09C3586.7 1652.49 3562.9 1636.93 3541.3 1617.9C3541.3 1617.9 3572.42 1609.85 3588.71 1619.55C3605 1629.25 3615.07 1661.09 3615.07 1661.09Z" fill="#76AB9F"/>
<path d="M13.0223 1333.56L15.0356 1314.71C339.366 1347.83 579.868 1245.36 582.247 1244.26L589.935 1261.64C587.555 1262.74 342.66 1367.22 13.2055 1333.56L13.0223 1333.56Z" fill="#76AB9F"/>
<path d="M579.685 1259.63C565.592 1221.21 636.242 1084.15 680.535 1109.77C724.645 1135.39 697.191 1173.45 697.191 1173.45C697.191 1173.45 747.158 1154.42 763.265 1195.41C779.372 1236.39 724.646 1250.3 724.646 1250.3C724.646 1250.3 763.265 1257.98 761.618 1294.58C759.97 1331.18 602.564 1321.48 579.868 1259.63L579.685 1259.63Z" fill="#FFEBAB"/>
<path d="M585.909 1207.48C602.564 1234.02 609.886 1263.11 612.997 1293.12C612.997 1293.12 581.699 1277.93 575.842 1258.9C569.985 1239.87 585.909 1207.3 585.909 1207.3L585.909 1207.48Z" fill="#76AB9F"/>
</g>
</g>
</svg>
