<svg width="52" height="38" viewBox="0 0 52 38" fill="none" xmlns="http://www.w3.org/2000/svg">
<path d="M4.20005 37.3543C3.18212 37.3543 2.29143 37.0127 1.52798 36.3296C0.764536 35.6465 0.382812 34.8495 0.382812 33.9387V4.33725C0.382812 3.42643 0.764536 2.62947 1.52798 1.94636C2.29143 1.26325 3.18212 0.921692 4.20005 0.921692H47.4621C48.48 0.921692 49.3707 1.26325 50.1341 1.94636C50.8976 2.62947 51.2793 3.42643 51.2793 4.33725V33.9387C51.2793 34.8495 50.8976 35.6465 50.1341 36.3296C49.3707 37.0127 48.48 37.3543 47.4621 37.3543H4.20005ZM47.4621 7.46817L26.849 19.5365C26.6793 19.6124 26.5203 19.6788 26.3718 19.7357C26.2234 19.7926 26.0431 19.8211 25.8311 19.8211C25.619 19.8211 25.4387 19.7926 25.2903 19.7357C25.1418 19.6788 24.9828 19.6124 24.8131 19.5365L4.20005 7.46817V33.9387H47.4621V7.46817ZM25.8311 16.7471L47.2076 4.33725H4.51815L25.8311 16.7471ZM4.20005 7.46817V7.86665V5.61808V5.64654V4.33725V5.64654V5.58962V7.86665V7.46817V33.9387V7.46817Z" fill="#49454F"/>
</svg>
