<svg width="40" height="36" viewBox="0 0 40 36" fill="none" xmlns="http://www.w3.org/2000/svg">
<path d="M37.1573 35.82C32.7495 35.82 28.3689 34.8502 24.0154 32.9106C19.6618 30.9709 15.7508 28.4494 12.2825 25.346C8.81407 22.2426 5.99601 18.7432 3.82827 14.8478C1.66053 10.9523 0.57666 7.03265 0.57666 3.08873C0.57666 2.47452 0.811499 1.95728 1.28118 1.53703C1.75085 1.11677 2.32892 0.906647 3.01537 0.906647H10.6025C11.1083 0.906647 11.5508 1.0602 11.9302 1.36731C12.3096 1.67442 12.5534 2.08659 12.6618 2.60382L14.125 8.71367C14.1973 9.16625 14.1883 9.57842 14.0979 9.95018C14.0076 10.3219 13.8179 10.6371 13.5289 10.8958L8.10956 15.7933C10.1328 18.7998 12.3999 21.4183 14.9108 23.6488C17.4218 25.8794 20.267 27.7705 23.4463 29.3223L28.5947 24.5702C28.956 24.2146 29.3715 23.964 29.8412 23.8185C30.3108 23.6731 30.7805 23.6488 31.2502 23.7458L37.6992 25.0066C38.2411 25.1036 38.6928 25.346 39.0541 25.7339C39.4153 26.1219 39.596 26.5744 39.596 27.0917V33.6379C39.596 34.2522 39.3611 34.7694 38.8915 35.1896C38.4218 35.6099 37.8437 35.82 37.1573 35.82ZM6.48375 13.1263L10.8734 9.15008L9.62698 3.81609H3.82827C3.82827 5.07686 4.04505 6.45884 4.47859 7.96206C4.91214 9.46527 5.58053 11.1867 6.48375 13.1263ZM36.3444 32.9106V27.7221L30.7624 26.7038L26.4812 30.7285C27.9624 31.3427 29.5702 31.8438 31.3044 32.2317C33.0386 32.6196 34.7186 32.8459 36.3444 32.9106Z" fill="#49454F"/>
</svg>
